<?xml version="1.0" encoding="UTF-8" standalone="no"?>
<!DOCTYPE svg PUBLIC "-//W3C//DTD SVG 20010904//EN" "http://www.w3.org/TR/2001/REC-SVG-20010904/DTD/svg10.dtd">
<svg version="1.0" xmlns="http://www.w3.org/2000/svg" width="820.000000pt" height="493.000000pt" viewBox="0 0 820.000000 493.000000" preserveAspectRatio="xMidYMid meet">
<metadata>
Created by potrace 1.16, written by Peter Selinger 2001-2019
</metadata>
<g transform="translate(0.000000,493.000000) scale(0.100000,-0.100000)" fill="#000000" stroke="none">
<path d="M2092 4494 c-143 -71 -200 -240 -129 -380 43 -85 -21 -44 1012 -639 165 -95 353 -203 418 -241 l117 -68 0 -1256 c0 -1406 -5 -1318 72 -1405 57 -65 123 -95 211 -95 117 0 212 61 259 166 18 41 18 94 16 1441 -3 1344 -4 1399 -22 1436 -10 20 -35 53 -55 73 -20 20 -180 119 -356 221 -176 101 -408 235 -515 297 -527 306 -788 454 -819 464 -61 21 -151 15 -209 -14z m501 -295 c183 -105 340 -198 349 -206 28 -25 51 -98 44 -137 -13 -69 -85 -126 -159 -126 -24 0 -119 50 -377 198 -307 177 -347 203 -367 238 -59 103 11 224 129 224 46 0 73 -14 381 -191z m656 -382 c58 -35 227 -133 375 -217 205 -119 274 -163 292 -190 l24 -35 0 -1366 0 -1366 -23 -34 c-27 -40 -79 -69 -126 -69 -47 0 -105 36 -130 80 l-21 38 0 1285 c0 1209 -1 1286 -17 1305 -10 11 -43 33 -73 50 -30 16 -125 70 -210 120 -85 49 -195 113 -245 141 -49 29 -94 56 -99 61 -4 4 10 25 32 45 43 39 92 124 92 161 0 25 9 54 17 54 3 0 53 -28 112 -63z"/>
<path d="M5873 4505 c-29 -12 -300 -168 -883 -505 -140 -81 -370 -214 -510 -295 -140 -80 -267 -158 -281 -172 -15 -13 -40 -48 -55 -76 l-29 -52 0 -1395 0 -1395 23 -47 c50 -100 144 -157 258 -158 117 0 207 59 258 169 21 46 21 49 24 1318 l2 1272 213 122 c116 68 311 180 432 250 697 401 814 470 848 504 56 53 77 105 77 196 0 61 -5 85 -26 127 -31 62 -90 115 -152 136 -56 19 -156 20 -199 1z m183 -135 c78 -49 93 -160 30 -226 -26 -29 -194 -130 -600 -361 -99 -56 -139 -63 -201 -33 -95 46 -115 173 -37 243 11 10 168 103 349 208 303 174 332 189 377 189 32 0 60 -7 82 -20z m-992 -532 c11 -67 39 -120 90 -167 27 -24 44 -46 39 -51 -4 -4 -143 -85 -308 -180 -165 -94 -309 -181 -320 -191 -20 -19 -20 -36 -25 -1317 -5 -1229 -6 -1299 -23 -1325 -57 -87 -177 -88 -243 -1 l-29 37 -3 1346 c-3 1456 -5 1398 48 1446 20 18 749 444 761 445 4 0 9 -19 13 -42z"/>
<path d="M1754 3884 c-59 -21 -118 -76 -148 -136 -33 -66 -36 -180 -7 -243 31 -69 80 -108 291 -229 113 -65 273 -158 355 -206 83 -48 294 -170 470 -271 l320 -184 90 0 c102 0 140 14 199 71 76 74 103 181 72 286 -28 98 -64 126 -426 334 -179 103 -426 245 -550 317 -520 299 -465 272 -550 274 -47 2 -90 -3 -116 -13z m481 -305 c182 -105 338 -198 349 -207 48 -43 59 -130 24 -182 -38 -55 -73 -75 -131 -75 -49 0 -69 10 -370 184 -176 101 -333 195 -349 210 -33 27 -58 76 -58 113 0 37 39 106 73 127 21 14 49 21 82 21 47 0 71 -12 380 -191z m763 -434 c126 -73 236 -143 252 -161 62 -71 40 -184 -45 -231 -77 -43 -95 -37 -358 114 l-237 137 47 42 c57 49 91 113 100 183 3 28 8 49 12 47 3 -2 106 -61 229 -131z"/>
<path d="M6224 3881 c-23 -11 -176 -96 -340 -191 -165 -95 -452 -261 -639 -369 -187 -108 -358 -212 -379 -231 -117 -105 -116 -308 2 -411 55 -49 108 -69 183 -69 80 0 111 10 214 70 44 26 202 117 350 202 647 372 882 511 913 541 51 49 75 102 80 183 4 61 1 80 -20 125 -49 108 -143 169 -258 169 -42 0 -80 -7 -106 -19z m174 -125 c53 -28 75 -62 80 -124 7 -97 3 -100 -378 -321 -270 -156 -344 -195 -380 -198 -55 -5 -105 19 -138 68 -20 28 -23 43 -20 92 4 50 9 63 39 92 26 25 503 309 659 392 33 17 104 17 138 -1z m-968 -518 c0 -61 39 -136 97 -189 l50 -45 -231 -134 c-222 -130 -233 -135 -288 -135 -61 0 -93 17 -131 67 -31 41 -33 115 -5 163 21 35 55 58 258 177 129 75 238 137 243 137 4 1 7 -18 7 -41z"/>
</g>
</svg>