<?xml version="1.0" standalone="no"?>
<!DOCTYPE svg PUBLIC "-//W3C//DTD SVG 20010904//EN"
 "http://www.w3.org/TR/2001/REC-SVG-20010904/DTD/svg10.dtd">
<svg version="1.0" xmlns="http://www.w3.org/2000/svg"
 width="880.000000pt" height="921.000000pt" viewBox="0 0 880.000000 921.000000"
 preserveAspectRatio="xMidYMid meet">
<metadata>
Created by potrace 1.16, written by Peter Selinger 2001-2019
</metadata>
<g transform="translate(0.000000,921.000000) scale(0.100000,-0.100000)"
fill="#000000" stroke="none">
<path d="M5205 8800 c-43 -9 -80 -36 -95 -68 -8 -18 -15 -107 -21 -262 -4
-129 -8 -236 -8 -237 -1 -2 -25 -3 -53 -3 -248 0 -751 -167 -1054 -350 -46
-27 -87 -50 -93 -50 -5 0 -49 57 -97 128 -113 165 -206 285 -237 305 -25 16
-53 21 -94 19 -13 -1 -43 -21 -68 -45 -35 -34 -45 -51 -45 -76 0 -53 63 -164
222 -389 l81 -113 -29 -32 c-16 -17 -77 -81 -135 -142 -176 -185 -310 -369
-430 -590 -34 -63 -66 -115 -71 -115 -4 0 -108 34 -231 75 -180 61 -234 75
-283 75 -53 0 -65 -4 -88 -26 -62 -63 -57 -163 12 -209 21 -13 98 -47 172 -75
268 -100 302 -114 307 -125 2 -7 -5 -49 -17 -94 -55 -215 -90 -454 -90 -609 0
-101 -25 -347 -45 -445 -22 -104 -33 -127 -61 -127 -14 0 -122 44 -242 99
-119 54 -245 108 -278 121 -60 21 -63 21 -98 5 -55 -26 -96 -81 -96 -129 0
-65 54 -107 307 -235 120 -61 226 -117 236 -125 30 -23 12 -52 -73 -119 -94
-74 -217 -152 -438 -276 -228 -128 -347 -203 -463 -293 -55 -43 -113 -85 -130
-94 -36 -18 -33 -20 -208 130 -149 128 -184 154 -226 172 -83 34 -195 -33
-195 -117 0 -49 63 -120 242 -277 98 -86 178 -159 178 -163 0 -3 -29 -71 -64
-150 -130 -294 -161 -441 -154 -730 4 -142 2 -191 -7 -199 -7 -6 -88 -37 -181
-70 -281 -100 -347 -139 -360 -208 -9 -48 11 -106 47 -136 55 -47 75 -42 477
98 56 20 106 36 111 36 5 0 32 -46 61 -102 126 -247 296 -449 531 -629 104
-80 109 -85 103 -114 -4 -16 -41 -109 -84 -205 -153 -346 -159 -373 -105 -430
59 -61 152 -65 201 -7 15 18 78 136 141 264 63 127 120 237 127 242 9 8 55 -3
162 -39 326 -110 502 -139 942 -156 100 -3 185 -11 188 -16 4 -6 17 -105 30
-222 13 -116 31 -230 39 -253 22 -56 65 -83 135 -83 46 0 56 4 86 34 34 34 34
34 34 127 0 91 -14 285 -26 380 -7 56 -12 53 144 74 410 56 708 122 1039 229
112 36 209 66 215 66 7 0 35 -51 61 -114 71 -165 158 -326 191 -350 20 -15 42
-21 77 -20 56 1 93 23 123 74 17 28 18 38 7 82 -6 28 -45 128 -87 222 -42 94
-78 186 -81 203 -5 32 -4 33 62 63 106 48 256 134 430 248 192 125 262 175
423 305 68 54 127 97 131 95 5 -2 91 -78 191 -171 210 -192 258 -227 309 -227
69 0 128 55 138 128 5 35 1 44 -50 103 -30 36 -128 135 -216 220 l-161 154 92
100 c181 198 386 471 533 710 90 147 126 195 143 195 8 0 111 -40 230 -89 120
-48 234 -94 255 -100 47 -16 92 -2 132 39 23 24 30 41 33 88 4 51 1 62 -19 85
-26 29 -145 89 -366 187 -79 34 -143 66 -143 72 0 5 27 78 59 161 102 263 164
470 230 771 23 101 41 186 41 188 0 4 61 2 334 -12 l189 -10 25 22 c38 35 82
109 82 138 0 38 -38 90 -84 113 -35 18 -64 21 -272 25 l-234 5 0 96 c-1 355
-35 653 -104 903 -53 193 -60 171 74 240 222 114 321 172 341 196 36 46 23
129 -28 176 -64 60 -81 56 -366 -81 -151 -72 -181 -83 -192 -72 -8 8 -47 69
-89 137 -156 254 -268 382 -633 717 l-55 51 94 140 c147 218 188 288 188 318
0 88 -113 170 -186 134 -39 -18 -125 -123 -241 -294 -54 -79 -103 -144 -109
-144 -6 0 -73 29 -150 64 -235 109 -500 185 -769 221 -66 9 -138 20 -160 24
l-40 7 -5 232 -5 232 -36 36 c-39 38 -86 54 -134 44z m340 -861 c374 -40 763
-195 1073 -427 319 -239 576 -567 726 -923 121 -289 170 -550 170 -904 0 -766
-254 -1556 -709 -2204 -397 -566 -883 -985 -1505 -1300 -523 -264 -1054 -416
-1690 -483 -196 -20 -785 -17 -926 5 -227 35 -412 95 -619 197 -412 205 -700
538 -802 930 -88 337 14 759 253 1052 110 133 244 230 614 438 306 173 392
232 525 365 268 267 349 485 385 1045 27 419 91 688 230 967 122 246 226 389
433 594 372 371 725 550 1262 645 119 20 402 22 580 3z"/>
<path d="M5255 7079 c-130 -19 -300 -90 -432 -181 -90 -62 -229 -205 -289
-299 -201 -310 -229 -742 -69 -1059 73 -144 219 -314 358 -416 216 -160 529
-235 790 -189 248 43 430 139 604 316 101 103 146 167 209 294 145 296 149
617 10 911 -58 121 -113 201 -209 301 -170 177 -347 276 -570 318 -86 16 -301
18 -402 4z m371 -289 c43 -11 126 -43 184 -71 90 -45 117 -64 196 -143 50 -50
107 -118 126 -151 154 -266 156 -565 6 -820 -50 -85 -199 -236 -280 -284 -186
-108 -395 -139 -600 -87 -242 61 -421 207 -532 434 -160 323 -74 718 209 955
82 69 220 139 325 167 104 26 261 27 366 0z"/>
<path d="M4618 4029 c-93 -22 -248 -124 -314 -205 -79 -99 -110 -172 -122
-282 -18 -164 16 -313 99 -431 107 -152 292 -240 510 -241 84 0 175 27 256 77
191 118 296 298 296 503 -1 281 -191 518 -460 575 -75 16 -207 18 -265 4z
m255 -297 c60 -27 134 -103 165 -171 59 -129 -13 -308 -151 -375 -76 -37 -126
-42 -203 -21 -137 37 -224 149 -224 290 0 128 62 219 191 280 45 22 65 25 115
22 33 -2 81 -14 107 -25z"/>
<path d="M2416 3709 c-77 -18 -159 -71 -246 -159 -128 -128 -170 -229 -170
-407 0 -226 122 -424 321 -522 93 -46 158 -61 259 -61 207 0 378 94 499 275
59 89 81 171 81 308 0 180 -48 296 -174 420 -78 78 -162 123 -262 142 -83 16
-247 18 -308 4z m302 -298 c55 -28 112 -85 137 -136 27 -57 32 -160 9 -227
-24 -74 -118 -168 -192 -193 -138 -45 -293 25 -363 163 -77 156 11 358 181
413 48 16 182 4 228 -20z"/>
</g>
</svg>
