<?xml version="1.0" standalone="no"?>
<!DOCTYPE svg PUBLIC "-//W3C//DTD SVG 20010904//EN"
 "http://www.w3.org/TR/2001/REC-SVG-20010904/DTD/svg10.dtd">
<svg version="1.0" xmlns="http://www.w3.org/2000/svg"
 width="254.000000pt" height="254.000000pt" viewBox="0 0 254.000000 254.000000"
 preserveAspectRatio="xMidYMid meet">
<metadata>
Created by potrace 1.16, written by Peter Selinger 2001-2019
</metadata>
<g transform="translate(0.000000,254.000000) scale(0.100000,-0.100000)"
fill="#000000" stroke="none">
<path d="M636 2500 c-93 -141 -166 -359 -166 -496 l0 -34 -122 -1 c-68 -1
-134 -2 -148 -3 l-25 -1 0 -210 0 -210 148 -3 147 -3 0 -769 0 -770 210 0 210
0 0 526 c0 370 3 538 12 565 8 29 8 49 0 77 -6 20 -12 112 -13 204 -1 149 -3
166 -18 161 -13 -5 -13 -3 2 8 16 13 17 33 15 224 l-3 210 779 -2 779 -3 -7
72 c-14 151 -69 312 -147 434 l-42 64 -792 0 -792 0 -27 -40z"/>
<path d="M927 1544 c-9 -9 -9 -772 0 -777 5 -3 33 14 65 38 53 41 87 66 211
152 28 20 54 39 57 42 3 3 30 23 60 43 82 56 168 117 246 175 24 18 66 49 94
68 27 19 73 51 102 71 29 21 57 41 63 46 22 18 122 88 157 110 21 13 38 26 38
31 0 8 -1084 10 -1093 1z"/>
<path d="M1960 1022 c-81 -50 -401 -260 -438 -287 l-24 -17 38 -23 c21 -13 43
-21 48 -18 5 4 6 1 3 -4 -4 -6 -1 -13 7 -16 8 -3 92 -56 186 -117 94 -61 175
-108 180 -105 5 3 12 0 16 -6 4 -8 3 -9 -4 -5 -7 4 -12 5 -12 3 0 -7 72 -48
76 -44 3 2 3 157 2 345 l-3 341 -75 -47z"/>
<path d="M920 355 l0 -355 458 0 457 1 -30 22 c-16 12 -62 48 -102 80 -40 32
-77 55 -83 52 -6 -4 -9 -2 -8 4 3 9 -128 123 -164 142 -10 5 -30 21 -45 35
-15 14 -70 57 -123 97 -52 40 -126 98 -165 130 -38 33 -98 78 -132 103 l-63
43 0 -354z"/>
</g>
</svg>
