<?xml version="1.0" standalone="no"?>
<!DOCTYPE svg PUBLIC "-//W3C//DTD SVG 20010904//EN"
 "http://www.w3.org/TR/2001/REC-SVG-20010904/DTD/svg10.dtd">
<svg version="1.0" xmlns="http://www.w3.org/2000/svg"
 width="2048.000000pt" height="2048.000000pt" viewBox="0 0 2048.000000 2048.000000"
 preserveAspectRatio="xMidYMid meet">
<metadata>
Created by potrace 1.16, written by Peter Selinger 2001-2019
</metadata>
<g transform="translate(0.000000,2048.000000) scale(0.100000,-0.100000)"
fill="#000000" stroke="none">
<path d="M9508 16831 c-211 -68 -348 -254 -348 -473 0 -44 23 -337 50 -652 28
-314 49 -580 48 -590 -3 -16 -27 -24 -155 -52 -535 -114 -1121 -350 -1569
-631 l-80 -51 -419 499 c-230 275 -442 522 -472 550 -30 29 -85 65 -129 86
-69 33 -87 37 -178 41 -156 7 -270 -33 -372 -130 -113 -107 -157 -210 -157
-368 0 -120 19 -189 77 -275 19 -27 218 -270 444 -539 l411 -489 -129 -136
c-369 -391 -637 -770 -871 -1234 -54 -107 -95 -177 -102 -174 -281 105 -1198
434 -1237 444 -255 60 -518 -97 -594 -356 -21 -70 -21 -202 0 -272 39 -132
139 -255 254 -310 30 -15 325 -125 655 -244 330 -120 603 -221 607 -224 4 -3
0 -33 -7 -66 -102 -434 -139 -1070 -92 -1552 7 -68 12 -123 10 -123 -1 0 -118
-31 -260 -69 -142 -38 -420 -113 -618 -166 -205 -54 -386 -108 -421 -125 -267
-130 -360 -481 -191 -732 52 -77 138 -148 226 -185 60 -24 78 -27 186 -27
l120 0 581 157 c319 86 585 157 590 157 5 0 20 -30 33 -67 203 -580 528 -1154
899 -1588 l60 -70 -468 -470 c-389 -392 -472 -479 -494 -526 -100 -208 -65
-437 91 -592 156 -156 385 -190 593 -90 45 22 143 114 535 504 l480 477 65
-50 c197 -148 521 -348 759 -467 225 -113 667 -290 789 -316 17 -3 32 -11 32
-15 0 -5 -45 -264 -100 -574 -55 -311 -103 -589 -106 -619 -23 -192 96 -402
276 -490 273 -135 604 -3 698 279 11 32 66 320 123 639 l102 580 86 -7 c165
-12 631 -8 811 7 308 27 619 82 889 157 80 23 154 41 164 42 15 1 52 -91 218
-548 123 -338 213 -569 233 -600 42 -66 132 -148 199 -180 56 -28 170 -56 227
-56 58 0 165 27 227 57 78 37 180 140 221 221 41 84 56 159 50 262 -5 80 -17
118 -211 650 -113 311 -208 572 -212 581 -5 13 19 31 102 79 247 144 527 343
753 536 126 107 458 438 530 527 25 31 48 56 53 57 4 0 233 -159 510 -352 276
-194 526 -366 555 -381 185 -100 426 -69 578 75 113 107 157 210 157 368 0
155 -43 258 -150 361 -26 26 -275 205 -553 399 -278 194 -509 356 -514 361 -6
5 29 88 86 206 108 223 204 459 273 673 70 219 149 547 171 709 4 29 12 55 19
57 7 3 273 -18 591 -46 741 -65 740 -65 816 -51 204 40 363 205 399 414 33
193 -61 401 -228 507 -96 61 -132 67 -803 125 -344 30 -648 57 -676 60 l-50 6
-13 165 c-37 502 -162 1038 -345 1492 -49 123 -52 132 -35 132 21 0 1132 783
1192 839 110 104 164 262 145 426 -20 180 -146 338 -325 405 -118 45 -286 35
-401 -24 -26 -14 -287 -193 -581 -399 l-534 -375 -56 77 c-303 419 -679 800
-1086 1101 -55 41 -101 75 -103 76 -2 1 120 267 271 590 151 324 279 610 286
636 14 58 14 188 0 248 -39 170 -187 319 -364 365 -197 51 -424 -31 -531 -192
-22 -32 -151 -299 -288 -593 -137 -294 -252 -539 -256 -543 -4 -4 -58 13 -121
39 -529 217 -1106 343 -1691 370 l-147 7 -6 41 c-3 23 -28 302 -55 621 -29
341 -56 606 -66 642 -18 69 -68 160 -117 212 -48 51 -143 109 -215 131 -84 26
-224 26 -304 1z m1142 -2475 c234 -27 506 -79 681 -130 l57 -17 -26 -72 c-34
-94 -41 -249 -18 -351 29 -123 109 -250 213 -337 63 -53 192 -115 271 -130
104 -20 253 -8 344 28 137 54 252 152 320 272 17 31 32 58 34 60 4 5 171 -112
286 -202 493 -383 887 -862 1174 -1422 79 -154 194 -412 194 -435 0 -4 -39
-10 -87 -13 -154 -10 -288 -72 -398 -182 -245 -244 -244 -634 1 -879 184 -184
464 -237 691 -131 l53 24 4 -22 c11 -50 13 -325 5 -504 -42 -907 -365 -1762
-936 -2473 -100 -125 -376 -420 -393 -420 -4 0 -10 19 -14 41 -10 63 -70 185
-122 248 -135 164 -301 237 -519 229 -92 -4 -122 -10 -187 -35 -151 -60 -266
-164 -338 -308 -119 -235 -77 -511 106 -705 34 -36 85 -78 113 -95 28 -16 51
-33 51 -36 0 -3 -80 -44 -177 -91 -367 -177 -716 -289 -1118 -358 -277 -47
-384 -55 -725 -55 -194 0 -361 5 -435 13 -173 19 -439 66 -600 106 -130 32
-415 121 -477 149 l-28 12 35 44 c157 197 184 447 74 671 -56 114 -170 229
-279 282 -150 74 -320 85 -475 33 -181 -61 -336 -210 -391 -380 -9 -27 -18
-52 -20 -54 -2 -2 -49 35 -106 82 -603 498 -1050 1128 -1311 1848 -342 941
-337 2014 13 2941 l21 57 52 -28 c91 -51 189 -75 302 -75 178 1 310 57 440
188 127 128 180 257 179 436 0 121 -17 188 -72 295 -44 83 -152 197 -230 241
l-52 30 82 100 c109 132 416 438 551 550 689 567 1518 903 2407 973 162 13
618 5 780 -13z"/>
<path d="M9755 13775 c-212 -46 -384 -202 -459 -415 -26 -75 -30 -98 -29 -195
0 -91 4 -124 26 -191 120 -365 534 -538 880 -367 107 54 221 171 275 283 48
102 62 163 62 278 0 106 -18 182 -67 282 -48 98 -168 220 -263 268 -133 66
-289 87 -425 57z"/>
<path d="M11680 12454 c-282 -73 -486 -353 -467 -639 21 -316 263 -562 581
-591 194 -17 424 87 539 244 51 69 94 160 112 234 19 81 19 218 0 293 -56 221
-239 404 -460 460 -74 19 -232 19 -305 -1z"/>
<path d="M8600 11795 c-78 -19 -125 -41 -202 -92 -326 -216 -370 -679 -91
-958 145 -145 368 -213 563 -171 297 63 499 313 500 616 0 172 -58 309 -184
435 -92 92 -166 136 -282 165 -90 23 -221 25 -304 5z"/>
<path d="M7086 10185 c-131 -33 -264 -121 -343 -228 -185 -249 -171 -575 34
-797 80 -87 155 -136 263 -174 75 -26 98 -30 195 -30 77 0 128 5 170 18 217
65 387 241 441 456 22 89 15 261 -16 347 -63 181 -204 322 -388 391 -85 32
-263 40 -356 17z"/>
<path d="M11712 10010 c-230 -60 -409 -247 -457 -475 -85 -404 239 -779 649
-752 199 13 357 101 470 262 177 251 149 582 -69 800 -156 156 -384 220 -593
165z"/>
<path d="M9732 8760 c-164 -44 -317 -161 -395 -300 -73 -131 -98 -315 -62
-455 57 -223 244 -407 465 -459 288 -68 594 85 715 357 148 336 -34 737 -385
848 -96 31 -245 35 -338 9z"/>
</g>
</svg>
